<mxfile host="app.diagrams.net" modified="2023-05-03T09:43:10.910Z" agent="Mozilla/5.0 (Macintosh; Intel Mac OS X 10_15_7) AppleWebKit/537.36 (KHTML, like Gecko) Chrome/112.0.0.0 Safari/537.36" etag="tbI5uxHsxyqm29mq9aR3" version="21.2.3" type="device">
  <diagram id="br-_1BHpmCsbbQNgPx2P" name="第 1 页">
    <mxGraphModel dx="914" dy="662" grid="1" gridSize="10" guides="1" tooltips="1" connect="1" arrows="1" fold="1" page="0" pageScale="1" pageWidth="827" pageHeight="1169" math="1" shadow="0">
      <root>
        <mxCell id="0" />
        <mxCell id="1" parent="0" />
        <mxCell id="VrbDgcPnt1bu83vufzv6-96" value="$$\theta =-7\pi /12$$" style="text;whiteSpace=wrap;html=1;fontSize=14;verticalAlign=middle;" parent="1" vertex="1">
          <mxGeometry x="461.93" y="239.51999999999995" width="90" height="40" as="geometry" />
        </mxCell>
        <mxCell id="dMq3VASlgtf_oiCoSYpX-1" value="" style="rounded=0;whiteSpace=wrap;html=1;rotation=60;fillColor=none;strokeColor=#3399FF;container=0;" parent="1" vertex="1">
          <mxGeometry x="615.4373637489423" y="28.509513032634096" width="95.30741595321977" height="150.10510846295776" as="geometry" />
        </mxCell>
        <mxCell id="dMq3VASlgtf_oiCoSYpX-2" value="" style="rounded=0;whiteSpace=wrap;html=1;rotation=23;fillColor=none;strokeColor=#3399FF;container=0;" parent="1" vertex="1">
          <mxGeometry x="622.6637622091147" y="473.63808762066367" width="95.30741595321977" height="150.10510846295776" as="geometry" />
        </mxCell>
        <mxCell id="dMq3VASlgtf_oiCoSYpX-3" value="" style="rounded=0;whiteSpace=wrap;html=1;rotation=30;fillColor=none;strokeColor=#3399FF;container=0;" parent="1" vertex="1">
          <mxGeometry x="72.85425906552103" y="449.1761445449726" width="95.30741595321977" height="150.10510846295776" as="geometry" />
        </mxCell>
        <mxCell id="dMq3VASlgtf_oiCoSYpX-4" value="" style="rounded=0;whiteSpace=wrap;html=1;rotation=-15;fillColor=none;strokeColor=#3399FF;container=0;" parent="1" vertex="1">
          <mxGeometry x="69.94558465727845" y="236.26319550080242" width="95.30741595321977" height="150.10510846295776" as="geometry" />
        </mxCell>
        <mxCell id="dMq3VASlgtf_oiCoSYpX-5" value="" style="endArrow=classic;html=1;rounded=0;strokeColor=#000000;exitX=1;exitY=1;exitDx=0;exitDy=0;" parent="1" edge="1">
          <mxGeometry width="50" height="50" relative="1" as="geometry">
            <mxPoint x="71.7523120416733" y="181.07976132810745" as="sourcePoint" />
            <mxPoint x="247.35029003278706" y="182.08596252636488" as="targetPoint" />
          </mxGeometry>
        </mxCell>
        <mxCell id="dMq3VASlgtf_oiCoSYpX-6" value="x-axis" style="text;html=1;align=center;verticalAlign=middle;resizable=0;points=[];autosize=1;strokeColor=none;fillColor=none;fontSize=18;" parent="1" vertex="1">
          <mxGeometry x="113.53986139293298" y="173.57913404413392" width="70" height="40" as="geometry" />
        </mxCell>
        <mxCell id="dMq3VASlgtf_oiCoSYpX-7" value="" style="verticalLabelPosition=bottom;verticalAlign=top;html=1;shape=mxgraph.basic.arc;startAngle=0.10241638234956672;endAngle=0.40279994389289264;strokeColor=#000000;fillColor=#FF6666;dashed=1;dashPattern=1 2;" parent="1" vertex="1">
          <mxGeometry x="130.1205475359057" y="128.05730835090992" width="54.36682953680692" height="53.17770287219153" as="geometry" />
        </mxCell>
        <mxCell id="dMq3VASlgtf_oiCoSYpX-9" value="x-axis" style="text;html=1;align=center;verticalAlign=middle;resizable=0;points=[];autosize=1;strokeColor=none;fillColor=none;fontSize=18;" parent="1" vertex="1">
          <mxGeometry x="107.0968855695648" y="387.74871919563753" width="70" height="40" as="geometry" />
        </mxCell>
        <mxCell id="dMq3VASlgtf_oiCoSYpX-10" value="" style="endArrow=classic;html=1;rounded=0;strokeColor=#000000;exitX=1;exitY=1;exitDx=0;exitDy=0;" parent="1" edge="1">
          <mxGeometry width="50" height="50" relative="1" as="geometry">
            <mxPoint x="124.98452948379915" y="613.4035448765542" as="sourcePoint" />
            <mxPoint x="232.4787672203583" y="614.7339179998643" as="targetPoint" />
          </mxGeometry>
        </mxCell>
        <mxCell id="dMq3VASlgtf_oiCoSYpX-11" value="x-axis" style="text;html=1;align=center;verticalAlign=middle;resizable=0;points=[];autosize=1;strokeColor=none;fillColor=none;fontSize=18;" parent="1" vertex="1">
          <mxGeometry x="127.92512187906924" y="604.1740006589661" width="70" height="40" as="geometry" />
        </mxCell>
        <mxCell id="dMq3VASlgtf_oiCoSYpX-12" value="" style="verticalLabelPosition=bottom;verticalAlign=top;html=1;shape=mxgraph.basic.arc;startAngle=0.12058016591334837;endAngle=0.3268668839521077;strokeColor=#000000;fillColor=#FF6666;dashed=1;dashPattern=1 2;" parent="1" vertex="1">
          <mxGeometry x="104.57826811873754" y="569.5389487820964" width="51.557313873786846" height="56.71657972068384" as="geometry" />
        </mxCell>
        <mxCell id="dMq3VASlgtf_oiCoSYpX-13" value="width" style="text;html=1;align=center;verticalAlign=middle;resizable=0;points=[];autosize=1;strokeColor=none;fillColor=none;rotation=-15;container=0;fontSize=18;" parent="1" vertex="1">
          <mxGeometry x="59.462645228366796" y="200.8967119051762" width="70" height="40" as="geometry" />
        </mxCell>
        <mxCell id="dMq3VASlgtf_oiCoSYpX-14" value="" style="rounded=0;whiteSpace=wrap;html=1;rotation=60;fillColor=none;strokeColor=#3399FF;container=0;" parent="1" vertex="1">
          <mxGeometry x="66.94696697847812" y="28.509513032634118" width="95.30741595321977" height="150.10510846295776" as="geometry" />
        </mxCell>
        <mxCell id="dMq3VASlgtf_oiCoSYpX-15" value="height" style="text;html=1;align=center;verticalAlign=middle;resizable=0;points=[];autosize=1;strokeColor=none;fillColor=none;rotation=75;container=0;fontSize=18;" parent="1" vertex="1">
          <mxGeometry x="25.331574474973984" y="306.56137271780585" width="70" height="40" as="geometry" />
        </mxCell>
        <mxCell id="dMq3VASlgtf_oiCoSYpX-16" value="" style="ellipse;whiteSpace=wrap;html=1;aspect=fixed;fillColor=#B266FF;strokeColor=none;rotation=0;container=0;" parent="1" vertex="1">
          <mxGeometry x="110.34597708128112" y="305.1212750939075" width="12.002443678300072" height="12.002443678300072" as="geometry" />
        </mxCell>
        <mxCell id="dMq3VASlgtf_oiCoSYpX-18" value="&lt;font style=&quot;font-size: 18px;&quot;&gt;width&lt;/font&gt;" style="text;html=1;align=center;verticalAlign=middle;resizable=0;points=[];autosize=1;strokeColor=none;fillColor=none;rotation=-30;container=0;" parent="1" vertex="1">
          <mxGeometry x="42.4947283131153" y="35.963087359826346" width="70" height="40" as="geometry" />
        </mxCell>
        <mxCell id="dMq3VASlgtf_oiCoSYpX-19" value="&lt;font style=&quot;font-size: 18px;&quot;&gt;height&lt;/font&gt;" style="text;html=1;align=center;verticalAlign=middle;resizable=0;points=[];autosize=1;strokeColor=none;fillColor=none;rotation=60;container=0;" parent="1" vertex="1">
          <mxGeometry x="6.813544989089283" y="128.76751878543553" width="70" height="40" as="geometry" />
        </mxCell>
        <mxCell id="dMq3VASlgtf_oiCoSYpX-20" value="" style="ellipse;whiteSpace=wrap;html=1;aspect=fixed;fillColor=#B266FF;strokeColor=none;rotation=0;container=0;" parent="1" vertex="1">
          <mxGeometry x="109.57606173131897" y="102.21666433798616" width="12.002443678300072" height="12.002443678300072" as="geometry" />
        </mxCell>
        <mxCell id="dMq3VASlgtf_oiCoSYpX-22" value="" style="endArrow=classic;html=1;rounded=0;strokeColor=#FF3333;jumpSize=6;strokeWidth=1;endSize=6;" parent="1" edge="1">
          <mxGeometry width="50" height="50" relative="1" as="geometry">
            <mxPoint x="73.1023336013909" y="180.75988567307684" as="sourcePoint" />
            <mxPoint x="224.3879024023344" y="95.64011584563694" as="targetPoint" />
          </mxGeometry>
        </mxCell>
        <mxCell id="dMq3VASlgtf_oiCoSYpX-23" value="" style="endArrow=classic;html=1;rounded=0;strokeColor=#000000;exitX=1;exitY=1;exitDx=0;exitDy=0;entryX=0.695;entryY=-0.118;entryDx=0;entryDy=0;entryPerimeter=0;" parent="1" edge="1">
          <mxGeometry width="50" height="50" relative="1" as="geometry">
            <mxPoint x="90.08170028551099" y="396.2488765818571" as="sourcePoint" />
            <mxPoint x="211.74244446755355" y="395.5605587015317" as="targetPoint" />
          </mxGeometry>
        </mxCell>
        <mxCell id="dMq3VASlgtf_oiCoSYpX-24" value="" style="verticalLabelPosition=bottom;verticalAlign=top;html=1;shape=mxgraph.basic.arc;startAngle=0.15559398025097615;endAngle=0.34797894846832894;strokeColor=#000000;fillColor=#FF6666;dashed=1;dashPattern=1 2;" parent="1" vertex="1">
          <mxGeometry x="156.27065486093878" y="369.4573352068428" width="28.932608414370296" height="28.297507624394537" as="geometry" />
        </mxCell>
        <mxCell id="dMq3VASlgtf_oiCoSYpX-26" value="" style="endArrow=classic;html=1;rounded=0;strokeColor=#FF3333;jumpSize=6;strokeWidth=1;endSize=6;" parent="1" edge="1">
          <mxGeometry width="50" height="50" relative="1" as="geometry">
            <mxPoint x="91.43172184522858" y="395.92900092682635" as="sourcePoint" />
            <mxPoint x="208.9490735425653" y="364.5812491675081" as="targetPoint" />
          </mxGeometry>
        </mxCell>
        <mxCell id="dMq3VASlgtf_oiCoSYpX-27" value="" style="endArrow=classic;html=1;rounded=0;strokeColor=#000000;exitX=1;exitY=1;exitDx=0;exitDy=0;" parent="1" edge="1">
          <mxGeometry width="50" height="50" relative="1" as="geometry">
            <mxPoint x="347.8412550807625" y="181.07976132810745" as="sourcePoint" />
            <mxPoint x="523.4392330718762" y="182.08596252636488" as="targetPoint" />
          </mxGeometry>
        </mxCell>
        <mxCell id="dMq3VASlgtf_oiCoSYpX-28" value="x-axis" style="text;html=1;align=center;verticalAlign=middle;resizable=0;points=[];autosize=1;strokeColor=none;fillColor=none;fontSize=18;" parent="1" vertex="1">
          <mxGeometry x="389.62880443202215" y="173.57913404413392" width="70" height="40" as="geometry" />
        </mxCell>
        <mxCell id="dMq3VASlgtf_oiCoSYpX-29" value="" style="verticalLabelPosition=bottom;verticalAlign=top;html=1;shape=mxgraph.basic.arc;startAngle=0.10241638234956672;endAngle=0.40279994389289264;strokeColor=#000000;fillColor=#FF6666;dashed=1;dashPattern=1 2;" parent="1" vertex="1">
          <mxGeometry x="406.20949057499485" y="128.05730835090992" width="54.36682953680692" height="53.17770287219153" as="geometry" />
        </mxCell>
        <mxCell id="dMq3VASlgtf_oiCoSYpX-31" value="" style="rounded=0;whiteSpace=wrap;html=1;rotation=60;fillColor=none;strokeColor=#3399FF;container=0;" parent="1" vertex="1">
          <mxGeometry x="343.0359100175673" y="28.509513032634096" width="95.30741595321977" height="150.10510846295776" as="geometry" />
        </mxCell>
        <mxCell id="dMq3VASlgtf_oiCoSYpX-32" value="width" style="text;html=1;align=center;verticalAlign=middle;resizable=0;points=[];autosize=1;strokeColor=none;fillColor=none;rotation=-30;container=0;fontSize=18;" parent="1" vertex="1">
          <mxGeometry x="326.3736713522044" y="31.323087359826346" width="70" height="40" as="geometry" />
        </mxCell>
        <mxCell id="dMq3VASlgtf_oiCoSYpX-33" value="height" style="text;html=1;align=center;verticalAlign=middle;resizable=0;points=[];autosize=1;strokeColor=none;fillColor=none;rotation=60;container=0;fontSize=18;" parent="1" vertex="1">
          <mxGeometry x="281.9024880281783" y="127.76751878543553" width="70" height="40" as="geometry" />
        </mxCell>
        <mxCell id="dMq3VASlgtf_oiCoSYpX-34" value="" style="ellipse;whiteSpace=wrap;html=1;aspect=fixed;fillColor=#B266FF;strokeColor=none;rotation=0;container=0;" parent="1" vertex="1">
          <mxGeometry x="385.6650047704081" y="102.21666433798616" width="12.002443678300072" height="12.002443678300072" as="geometry" />
        </mxCell>
        <mxCell id="dMq3VASlgtf_oiCoSYpX-36" value="" style="endArrow=classic;html=1;rounded=0;strokeColor=#FF3333;jumpSize=6;strokeWidth=1;endSize=6;" parent="1" edge="1">
          <mxGeometry width="50" height="50" relative="1" as="geometry">
            <mxPoint x="349.1912766404798" y="180.75988567307684" as="sourcePoint" />
            <mxPoint x="500.4768454414237" y="95.64011584563694" as="targetPoint" />
          </mxGeometry>
        </mxCell>
        <mxCell id="dMq3VASlgtf_oiCoSYpX-37" value="" style="rounded=0;whiteSpace=wrap;html=1;rotation=-15;fillColor=none;strokeColor=#3399FF;container=0;" parent="1" vertex="1">
          <mxGeometry x="348.7765069251805" y="235.89850208511803" width="95.30741595321977" height="150.10510846295776" as="geometry" />
        </mxCell>
        <mxCell id="dMq3VASlgtf_oiCoSYpX-38" value="x-axis" style="text;html=1;align=center;verticalAlign=middle;resizable=0;points=[];autosize=1;strokeColor=none;fillColor=none;fontSize=18;" parent="1" vertex="1">
          <mxGeometry x="385.9278078374668" y="387.3840257799529" width="70" height="40" as="geometry" />
        </mxCell>
        <mxCell id="dMq3VASlgtf_oiCoSYpX-39" value="width" style="text;html=1;align=center;verticalAlign=middle;resizable=0;points=[];autosize=1;strokeColor=none;fillColor=none;rotation=75;container=0;fontSize=18;" parent="1" vertex="1">
          <mxGeometry x="420.9274622023494" y="280.9522605363942" width="70" height="40" as="geometry" />
        </mxCell>
        <mxCell id="dMq3VASlgtf_oiCoSYpX-40" value="height" style="text;html=1;align=center;verticalAlign=middle;resizable=0;points=[];autosize=1;strokeColor=none;fillColor=none;rotation=-15;container=0;fontSize=18;" parent="1" vertex="1">
          <mxGeometry x="338.24138144383585" y="199.54599555078968" width="70" height="40" as="geometry" />
        </mxCell>
        <mxCell id="dMq3VASlgtf_oiCoSYpX-41" value="" style="ellipse;whiteSpace=wrap;html=1;aspect=fixed;fillColor=#B266FF;strokeColor=none;rotation=0;container=0;" parent="1" vertex="1">
          <mxGeometry x="389.1768993491831" y="304.75658167822286" width="12.002443678300072" height="12.002443678300072" as="geometry" />
        </mxCell>
        <mxCell id="dMq3VASlgtf_oiCoSYpX-43" value="" style="endArrow=classic;html=1;rounded=0;strokeColor=#000000;exitX=1;exitY=1;exitDx=0;exitDy=0;entryX=0.695;entryY=-0.118;entryDx=0;entryDy=0;entryPerimeter=0;" parent="1" edge="1">
          <mxGeometry width="50" height="50" relative="1" as="geometry">
            <mxPoint x="368.912622553413" y="395.88418316617305" as="sourcePoint" />
            <mxPoint x="490.5733667354557" y="395.19586528584693" as="targetPoint" />
          </mxGeometry>
        </mxCell>
        <mxCell id="dMq3VASlgtf_oiCoSYpX-44" value="" style="verticalLabelPosition=bottom;verticalAlign=top;html=1;shape=mxgraph.basic.arc;startAngle=0.875;endAngle=0.34797894846832894;strokeColor=#000000;fillColor=#FF6666;dashed=1;dashPattern=1 2;" parent="1" vertex="1">
          <mxGeometry x="366.2144142374828" y="370.44335814554466" width="28.932608414370296" height="28.297507624394537" as="geometry" />
        </mxCell>
        <mxCell id="dMq3VASlgtf_oiCoSYpX-46" value="" style="endArrow=classic;html=1;rounded=0;strokeColor=#FF3333;jumpSize=6;strokeWidth=1;endSize=6;" parent="1" edge="1">
          <mxGeometry width="50" height="50" relative="1" as="geometry">
            <mxPoint x="370.2626441131307" y="395.56430751114164" as="sourcePoint" />
            <mxPoint x="322.9910963448662" y="224.29584860093908" as="targetPoint" />
          </mxGeometry>
        </mxCell>
        <mxCell id="dMq3VASlgtf_oiCoSYpX-47" value="width" style="text;html=1;align=center;verticalAlign=middle;resizable=0;points=[];autosize=1;strokeColor=none;fillColor=none;rotation=-60;container=0;fontSize=18;" parent="1" vertex="1">
          <mxGeometry x="28.384682074873275" y="475.6160918372961" width="70" height="40" as="geometry" />
        </mxCell>
        <mxCell id="dMq3VASlgtf_oiCoSYpX-48" value="height" style="text;html=1;align=center;verticalAlign=middle;resizable=0;points=[];autosize=1;strokeColor=none;fillColor=none;rotation=30;container=0;fontSize=18;" parent="1" vertex="1">
          <mxGeometry x="132.96546918105463" y="426.44026855612105" width="70" height="40" as="geometry" />
        </mxCell>
        <mxCell id="dMq3VASlgtf_oiCoSYpX-49" value="" style="ellipse;whiteSpace=wrap;html=1;aspect=fixed;fillColor=#B266FF;strokeColor=none;rotation=0;container=0;" parent="1" vertex="1">
          <mxGeometry x="114.72694575524099" y="521.3840006969556" width="12.002443678300072" height="12.002443678300072" as="geometry" />
        </mxCell>
        <mxCell id="dMq3VASlgtf_oiCoSYpX-52" value="" style="endArrow=classic;html=1;rounded=0;strokeColor=#FF3333;" parent="1" edge="1">
          <mxGeometry width="50" height="50" relative="1" as="geometry">
            <mxPoint x="126.33455104351614" y="613.0836692215236" as="sourcePoint" />
            <mxPoint x="213" y="462" as="targetPoint" />
          </mxGeometry>
        </mxCell>
        <mxCell id="dMq3VASlgtf_oiCoSYpX-63" value="" style="endArrow=classic;html=1;rounded=0;strokeColor=#000000;exitX=1;exitY=1;exitDx=0;exitDy=0;" parent="1" edge="1">
          <mxGeometry width="50" height="50" relative="1" as="geometry">
            <mxPoint x="620.2427088121375" y="181.07976132810745" as="sourcePoint" />
            <mxPoint x="795.840686803251" y="182.08596252636488" as="targetPoint" />
          </mxGeometry>
        </mxCell>
        <mxCell id="dMq3VASlgtf_oiCoSYpX-64" value="x-axis" style="text;html=1;align=center;verticalAlign=middle;resizable=0;points=[];autosize=1;strokeColor=none;fillColor=none;fontSize=18;" parent="1" vertex="1">
          <mxGeometry x="662.0302581633972" y="173.57913404413398" width="70" height="40" as="geometry" />
        </mxCell>
        <mxCell id="dMq3VASlgtf_oiCoSYpX-65" value="" style="verticalLabelPosition=bottom;verticalAlign=top;html=1;shape=mxgraph.basic.arc;startAngle=0.10241638234956672;endAngle=0.40279994389289264;strokeColor=#000000;fillColor=#FF6666;dashed=1;dashPattern=1 2;" parent="1" vertex="1">
          <mxGeometry x="678.6109443063699" y="128.05730835090992" width="54.36682953680692" height="53.17770287219153" as="geometry" />
        </mxCell>
        <mxCell id="dMq3VASlgtf_oiCoSYpX-67" value="width" style="text;html=1;align=center;verticalAlign=middle;resizable=0;points=[];autosize=1;strokeColor=none;fillColor=none;rotation=59;container=0;fontSize=18;" parent="1" vertex="1">
          <mxGeometry x="553.340777430212" y="126.44287696262869" width="70" height="40" as="geometry" />
        </mxCell>
        <mxCell id="dMq3VASlgtf_oiCoSYpX-68" value="height" style="text;html=1;align=center;verticalAlign=middle;resizable=0;points=[];autosize=1;strokeColor=none;fillColor=none;rotation=-30;container=0;fontSize=18;" parent="1" vertex="1">
          <mxGeometry x="591.9851250835798" y="35.261654651053604" width="70" height="40" as="geometry" />
        </mxCell>
        <mxCell id="dMq3VASlgtf_oiCoSYpX-69" value="" style="ellipse;whiteSpace=wrap;html=1;aspect=fixed;fillColor=#B266FF;strokeColor=none;rotation=0;container=0;" parent="1" vertex="1">
          <mxGeometry x="658.0664585017832" y="94.1123662116679" width="12.002443678300072" height="12.002443678300072" as="geometry" />
        </mxCell>
        <mxCell id="dMq3VASlgtf_oiCoSYpX-71" value="" style="endArrow=classic;html=1;rounded=0;strokeColor=#FF3333;jumpSize=6;strokeWidth=1;endSize=6;" parent="1" edge="1">
          <mxGeometry width="50" height="50" relative="1" as="geometry">
            <mxPoint x="621.592730371855" y="180.75988567307672" as="sourcePoint" />
            <mxPoint x="772.8782991727988" y="95.64011584563694" as="targetPoint" />
          </mxGeometry>
        </mxCell>
        <mxCell id="dMq3VASlgtf_oiCoSYpX-72" value="" style="rounded=0;whiteSpace=wrap;html=1;rotation=-15;fillColor=none;strokeColor=#3399FF;container=0;" parent="1" vertex="1">
          <mxGeometry x="620.2729724381791" y="238.5999347938908" width="95.30741595321977" height="150.10510846295776" as="geometry" />
        </mxCell>
        <mxCell id="dMq3VASlgtf_oiCoSYpX-73" value="x-axis" style="text;html=1;align=center;verticalAlign=middle;resizable=0;points=[];autosize=1;strokeColor=none;fillColor=none;fontSize=18;" parent="1" vertex="1">
          <mxGeometry x="657.4242733504653" y="390.08545848872575" width="70" height="40" as="geometry" />
        </mxCell>
        <mxCell id="dMq3VASlgtf_oiCoSYpX-74" value="width" style="text;html=1;align=center;verticalAlign=middle;resizable=0;points=[];autosize=1;strokeColor=none;fillColor=none;rotation=-15;container=0;fontSize=18;" parent="1" vertex="1">
          <mxGeometry x="608.6144382803286" y="202.74813310619354" width="70" height="40" as="geometry" />
        </mxCell>
        <mxCell id="dMq3VASlgtf_oiCoSYpX-75" value="height" style="text;html=1;align=center;verticalAlign=middle;resizable=0;points=[];autosize=1;strokeColor=none;fillColor=none;rotation=75;container=0;fontSize=18;" parent="1" vertex="1">
          <mxGeometry x="690.319555610482" y="277.0486902722176" width="70" height="40" as="geometry" />
        </mxCell>
        <mxCell id="dMq3VASlgtf_oiCoSYpX-76" value="" style="ellipse;whiteSpace=wrap;html=1;aspect=fixed;fillColor=#B266FF;strokeColor=none;rotation=0;container=0;" parent="1" vertex="1">
          <mxGeometry x="660.6733648621816" y="307.4580143869956" width="12.002443678300072" height="12.002443678300072" as="geometry" />
        </mxCell>
        <mxCell id="dMq3VASlgtf_oiCoSYpX-78" value="" style="endArrow=classic;html=1;rounded=0;strokeColor=#000000;exitX=1;exitY=1;exitDx=0;exitDy=0;entryX=0.695;entryY=-0.118;entryDx=0;entryDy=0;entryPerimeter=0;" parent="1" edge="1">
          <mxGeometry width="50" height="50" relative="1" as="geometry">
            <mxPoint x="640.4090880664118" y="398.5856158749456" as="sourcePoint" />
            <mxPoint x="762.0698322484535" y="397.89729799461986" as="targetPoint" />
          </mxGeometry>
        </mxCell>
        <mxCell id="dMq3VASlgtf_oiCoSYpX-79" value="" style="verticalLabelPosition=bottom;verticalAlign=top;html=1;shape=mxgraph.basic.arc;startAngle=0.875;endAngle=0.34797894846832894;strokeColor=#000000;fillColor=#FF6666;dashed=1;dashPattern=1 2;" parent="1" vertex="1">
          <mxGeometry x="637.7108797504812" y="373.1447908543176" width="28.932608414370296" height="28.297507624394537" as="geometry" />
        </mxCell>
        <mxCell id="dMq3VASlgtf_oiCoSYpX-81" value="" style="endArrow=classic;html=1;rounded=0;strokeColor=#FF3333;jumpSize=6;strokeWidth=1;endSize=6;" parent="1" edge="1">
          <mxGeometry width="50" height="50" relative="1" as="geometry">
            <mxPoint x="641.7591096261287" y="398.2657402199148" as="sourcePoint" />
            <mxPoint x="594.4875618578651" y="226.9972813097123" as="targetPoint" />
          </mxGeometry>
        </mxCell>
        <mxCell id="dMq3VASlgtf_oiCoSYpX-82" value="" style="endArrow=classic;html=1;rounded=0;strokeColor=#000000;exitX=1;exitY=1;exitDx=0;exitDy=0;" parent="1" edge="1">
          <mxGeometry width="50" height="50" relative="1" as="geometry">
            <mxPoint x="653.7948093262814" y="460.732075340262" as="sourcePoint" />
            <mxPoint x="761.2890470628406" y="462.0624484635725" as="targetPoint" />
          </mxGeometry>
        </mxCell>
        <mxCell id="dMq3VASlgtf_oiCoSYpX-83" value="x-axis" style="text;html=1;align=center;verticalAlign=middle;resizable=0;points=[];autosize=1;strokeColor=none;fillColor=none;fontSize=18;" parent="1" vertex="1">
          <mxGeometry x="657.9915793978057" y="422.78630142842" width="70" height="40" as="geometry" />
        </mxCell>
        <mxCell id="dMq3VASlgtf_oiCoSYpX-84" value="width" style="text;html=1;align=center;verticalAlign=middle;resizable=0;points=[];autosize=1;strokeColor=none;fillColor=none;rotation=23;container=0;fontSize=18;" parent="1" vertex="1">
          <mxGeometry x="594.7257219911929" y="611.2540883492678" width="70" height="40" as="geometry" />
        </mxCell>
        <mxCell id="dMq3VASlgtf_oiCoSYpX-85" value="height" style="text;html=1;align=center;verticalAlign=middle;resizable=0;points=[];autosize=1;strokeColor=none;fillColor=none;rotation=-66;container=0;fontSize=18;" parent="1" vertex="1">
          <mxGeometry x="688.1732793238929" y="556.7280186114604" width="70" height="40" as="geometry" />
        </mxCell>
        <mxCell id="dMq3VASlgtf_oiCoSYpX-86" value="" style="ellipse;whiteSpace=wrap;html=1;aspect=fixed;fillColor=#B266FF;strokeColor=none;rotation=0;container=0;" parent="1" vertex="1">
          <mxGeometry x="662.9696036252269" y="546.845473874893" width="12.002443678300072" height="12.002443678300072" as="geometry" />
        </mxCell>
        <mxCell id="dMq3VASlgtf_oiCoSYpX-89" value="" style="endArrow=classic;html=1;rounded=0;strokeColor=#FF3333;" parent="1" edge="1">
          <mxGeometry width="50" height="50" relative="1" as="geometry">
            <mxPoint x="654.1762624102004" y="460.5091246560284" as="sourcePoint" />
            <mxPoint x="586.950495800339" y="625.7017347974818" as="targetPoint" />
          </mxGeometry>
        </mxCell>
        <mxCell id="dMq3VASlgtf_oiCoSYpX-90" value="" style="verticalLabelPosition=bottom;verticalAlign=top;html=1;shape=mxgraph.basic.arc;startAngle=0.559029181964259;endAngle=0.2783443714492547;strokeColor=#000000;fillColor=#FF6666;dashed=1;dashPattern=1 2;" parent="1" vertex="1">
          <mxGeometry x="631.9432682691853" y="435.250728829003" width="31.282876324781327" height="34.41625270976481" as="geometry" />
        </mxCell>
        <mxCell id="dMq3VASlgtf_oiCoSYpX-91" value="" style="ellipse;whiteSpace=wrap;html=1;fontFamily=Lucida Console;fontSize=12;fontColor=rgb(0, 0, 0);align=center;strokeColor=none;strokeWidth=3;fillColor=#FF8000;aspect=fixed;container=0;" parent="1" vertex="1">
          <mxGeometry x="723.6847604962643" y="60.52149063159122" width="10.805683680038996" height="10.805683680038996" as="geometry" />
        </mxCell>
        <mxCell id="dMq3VASlgtf_oiCoSYpX-92" value="" style="ellipse;whiteSpace=wrap;html=1;fontFamily=Lucida Console;fontSize=12;fontColor=rgb(0, 0, 0);align=center;strokeColor=none;strokeWidth=3;fillColor=#FF8000;aspect=fixed;container=0;" parent="1" vertex="1">
          <mxGeometry x="643.5325203791432" y="235.89850208511805" width="10.805683680038996" height="10.805683680038996" as="geometry" />
        </mxCell>
        <mxCell id="dMq3VASlgtf_oiCoSYpX-93" value="" style="ellipse;whiteSpace=wrap;html=1;fontFamily=Lucida Console;fontSize=12;fontColor=rgb(0, 0, 0);align=center;strokeColor=none;strokeWidth=3;fillColor=#FF8000;aspect=fixed;container=0;" parent="1" vertex="1">
          <mxGeometry x="635.0094223821928" y="612.8294079401795" width="10.805683680038996" height="10.805683680038996" as="geometry" />
        </mxCell>
        <mxCell id="dMq3VASlgtf_oiCoSYpX-94" value="" style="ellipse;whiteSpace=wrap;html=1;fontFamily=Lucida Console;fontSize=12;fontColor=rgb(0, 0, 0);align=center;strokeColor=none;strokeWidth=3;fillColor=#FF8000;aspect=fixed;container=0;" parent="1" vertex="1">
          <mxGeometry x="175.7481624862991" y="60.92670553790713" width="10.805683680038996" height="10.805683680038996" as="geometry" />
        </mxCell>
        <mxCell id="dMq3VASlgtf_oiCoSYpX-95" value="" style="ellipse;whiteSpace=wrap;html=1;fontFamily=Lucida Console;fontSize=12;fontColor=rgb(0, 0, 0);align=center;strokeColor=none;strokeWidth=3;fillColor=#FF8000;aspect=fixed;container=0;" parent="1" vertex="1">
          <mxGeometry x="451.12121932279183" y="60.52149063159122" width="10.805683680038996" height="10.805683680038996" as="geometry" />
        </mxCell>
        <mxCell id="dMq3VASlgtf_oiCoSYpX-96" value="" style="ellipse;whiteSpace=wrap;html=1;fontFamily=Lucida Console;fontSize=12;fontColor=rgb(0, 0, 0);align=center;strokeColor=none;strokeWidth=3;fillColor=#FF8000;aspect=fixed;container=0;" parent="1" vertex="1">
          <mxGeometry x="370.6378037080909" y="233.20175128427434" width="10.805683680038996" height="10.805683680038996" as="geometry" />
        </mxCell>
        <mxCell id="dMq3VASlgtf_oiCoSYpX-97" value="" style="ellipse;whiteSpace=wrap;html=1;fontFamily=Lucida Console;fontSize=12;fontColor=rgb(0, 0, 0);align=center;strokeColor=none;strokeWidth=3;fillColor=#FF8000;aspect=fixed;container=0;" parent="1" vertex="1">
          <mxGeometry x="93.2186398850842" y="233.1970693763453" width="10.805683680038996" height="10.805683680038996" as="geometry" />
        </mxCell>
        <mxCell id="dMq3VASlgtf_oiCoSYpX-98" value="" style="ellipse;whiteSpace=wrap;html=1;fontFamily=Lucida Console;fontSize=12;fontColor=rgb(0, 0, 0);align=center;strokeColor=none;strokeWidth=3;fillColor=#FF8000;aspect=fixed;container=0;" parent="1" vertex="1">
          <mxGeometry x="78.3498817150552" y="585.1248058184527" width="10.805683680038996" height="10.805683680038996" as="geometry" />
        </mxCell>
        <mxCell id="kkGLe_UGo2_aggumswA4-3" value="" style="rounded=0;whiteSpace=wrap;html=1;rotation=30;fillColor=none;strokeColor=#3399FF;container=0;" parent="1" vertex="1">
          <mxGeometry x="326.37425906552096" y="451.8261445449726" width="95.30741595321977" height="150.10510846295776" as="geometry" />
        </mxCell>
        <mxCell id="kkGLe_UGo2_aggumswA4-4" value="" style="endArrow=classic;html=1;rounded=0;strokeColor=#000000;exitX=1;exitY=1;exitDx=0;exitDy=0;" parent="1" edge="1">
          <mxGeometry width="50" height="50" relative="1" as="geometry">
            <mxPoint x="378.50452948379916" y="616.0535448765542" as="sourcePoint" />
            <mxPoint x="485.9987672203582" y="617.3839179998644" as="targetPoint" />
          </mxGeometry>
        </mxCell>
        <mxCell id="kkGLe_UGo2_aggumswA4-5" value="x-axis" style="text;html=1;align=center;verticalAlign=middle;resizable=0;points=[];autosize=1;strokeColor=none;fillColor=none;fontSize=18;" parent="1" vertex="1">
          <mxGeometry x="381.44512187906923" y="606.824000658966" width="70" height="40" as="geometry" />
        </mxCell>
        <mxCell id="kkGLe_UGo2_aggumswA4-6" value="" style="verticalLabelPosition=bottom;verticalAlign=top;html=1;shape=mxgraph.basic.arc;startAngle=0.12058016591334837;endAngle=0.3268668839521077;strokeColor=#000000;fillColor=#FF6666;dashed=1;dashPattern=1 2;" parent="1" vertex="1">
          <mxGeometry x="358.09826811873756" y="572.1889487820964" width="51.557313873786846" height="56.71657972068384" as="geometry" />
        </mxCell>
        <mxCell id="kkGLe_UGo2_aggumswA4-7" value="width" style="text;html=1;align=center;verticalAlign=middle;resizable=0;points=[];autosize=1;strokeColor=none;fillColor=none;rotation=-60;container=0;fontSize=18;" parent="1" vertex="1">
          <mxGeometry x="281.9046820748732" y="478.2660918372961" width="70" height="40" as="geometry" />
        </mxCell>
        <mxCell id="kkGLe_UGo2_aggumswA4-8" value="height" style="text;html=1;align=center;verticalAlign=middle;resizable=0;points=[];autosize=1;strokeColor=none;fillColor=none;rotation=30;container=0;fontSize=18;" parent="1" vertex="1">
          <mxGeometry x="386.48546918105455" y="429.09026855612103" width="70" height="40" as="geometry" />
        </mxCell>
        <mxCell id="kkGLe_UGo2_aggumswA4-9" value="" style="ellipse;whiteSpace=wrap;html=1;aspect=fixed;fillColor=#B266FF;strokeColor=none;rotation=0;container=0;" parent="1" vertex="1">
          <mxGeometry x="368.246945755241" y="524.0340006969556" width="12.002443678300072" height="12.002443678300072" as="geometry" />
        </mxCell>
        <mxCell id="kkGLe_UGo2_aggumswA4-11" value="" style="endArrow=classic;html=1;rounded=0;strokeColor=#FF3333;" parent="1" edge="1">
          <mxGeometry width="50" height="50" relative="1" as="geometry">
            <mxPoint x="379.85455104351604" y="615.7336692215234" as="sourcePoint" />
            <mxPoint x="466.51999999999987" y="464.65" as="targetPoint" />
          </mxGeometry>
        </mxCell>
        <mxCell id="kkGLe_UGo2_aggumswA4-12" value="" style="ellipse;whiteSpace=wrap;html=1;fontFamily=Lucida Console;fontSize=12;fontColor=rgb(0, 0, 0);align=center;strokeColor=none;strokeWidth=3;fillColor=#FF8000;aspect=fixed;container=0;" parent="1" vertex="1">
          <mxGeometry x="332.22988171505517" y="588.4748058184528" width="10.805683680038996" height="10.805683680038996" as="geometry" />
        </mxCell>
        <mxCell id="VrbDgcPnt1bu83vufzv6-2" value="&lt;font style=&quot;font-size: 14px;&quot;&gt;$$\theta =-\pi /3$$&lt;/font&gt;" style="text;whiteSpace=wrap;html=1;verticalAlign=middle;" parent="1" vertex="1">
          <mxGeometry x="186.55" y="515.03" width="80" height="30" as="geometry" />
        </mxCell>
        <mxCell id="VrbDgcPnt1bu83vufzv6-93" value="&lt;font style=&quot;font-size: 14px;&quot;&gt;$$\theta =-\pi /3$$&lt;/font&gt;" style="text;whiteSpace=wrap;html=1;verticalAlign=middle;" parent="1" vertex="1">
          <mxGeometry x="461.93" y="515.03" width="80" height="30" as="geometry" />
        </mxCell>
        <mxCell id="VrbDgcPnt1bu83vufzv6-94" value="$$\theta =4\pi /3$$$$120^{\circ}&lt;br&gt;(0.66)$$" style="text;whiteSpace=wrap;html=1;fontSize=14;verticalAlign=middle;" parent="1" vertex="1">
          <mxGeometry x="760.3199999999999" y="525.03" width="90" height="40" as="geometry" />
        </mxCell>
        <mxCell id="VrbDgcPnt1bu83vufzv6-95" value="$$\theta =-\pi /12$$" style="text;whiteSpace=wrap;html=1;fontSize=14;verticalAlign=middle;" parent="1" vertex="1">
          <mxGeometry x="186.54999999999998" y="238.85999999999999" width="90" height="40" as="geometry" />
        </mxCell>
        <mxCell id="VrbDgcPnt1bu83vufzv6-97" value="$$\theta =7\pi /12$$$$105^{\circ}&lt;br&gt;(0.29)$$" style="text;whiteSpace=wrap;html=1;fontSize=14;verticalAlign=middle;" parent="1" vertex="1">
          <mxGeometry x="758.17" y="256.99999999999994" width="90" height="40" as="geometry" />
        </mxCell>
        <mxCell id="VrbDgcPnt1bu83vufzv6-98" value="$$\theta =-\pi /6$$" style="text;whiteSpace=wrap;html=1;fontSize=14;verticalAlign=middle;" parent="1" vertex="1">
          <mxGeometry x="186.54999999999998" y="20.92999999999997" width="90" height="40" as="geometry" />
        </mxCell>
        <mxCell id="VrbDgcPnt1bu83vufzv6-99" value="$$\theta =-\pi /6$$" style="text;whiteSpace=wrap;html=1;fontSize=14;verticalAlign=middle;" parent="1" vertex="1">
          <mxGeometry x="461.92999999999995" y="20.92999999999997" width="90" height="40" as="geometry" />
        </mxCell>
        <mxCell id="VrbDgcPnt1bu83vufzv6-100" value="$$\theta =\pi /6$$$$30^{\circ}&lt;br&gt;(0.08)$$" style="text;whiteSpace=wrap;html=1;fontSize=14;verticalAlign=middle;" parent="1" vertex="1">
          <mxGeometry x="760.3199999999999" y="37.25999999999997" width="90" height="40" as="geometry" />
        </mxCell>
        <mxCell id="8sC-gi6vCig18YPiqZaT-1" value="$$(a)$$" style="text;html=1;align=center;verticalAlign=middle;resizable=0;points=[];autosize=1;strokeColor=none;fillColor=none;fontSize=14;" vertex="1" parent="1">
          <mxGeometry x="85.51" y="651.25" width="70" height="30" as="geometry" />
        </mxCell>
        <mxCell id="8sC-gi6vCig18YPiqZaT-3" value="$$(b)$$" style="text;html=1;align=center;verticalAlign=middle;resizable=0;points=[];autosize=1;strokeColor=none;fillColor=none;fontSize=14;" vertex="1" parent="1">
          <mxGeometry x="363.25" y="651.25" width="70" height="30" as="geometry" />
        </mxCell>
        <mxCell id="8sC-gi6vCig18YPiqZaT-4" value="$$(c)$$" style="text;html=1;align=center;verticalAlign=middle;resizable=0;points=[];autosize=1;strokeColor=none;fillColor=none;fontSize=14;" vertex="1" parent="1">
          <mxGeometry x="653.0699999999999" y="651.25" width="70" height="30" as="geometry" />
        </mxCell>
      </root>
    </mxGraphModel>
  </diagram>
</mxfile>
